<?xml version="1.0" encoding="utf-8"?>
<!-- Generator: Adobe Illustrator 16.0.0, SVG Export Plug-In . SVG Version: 6.00 Build 0)  -->
<!DOCTYPE svg PUBLIC "-//W3C//DTD SVG 1.1//EN" "http://www.w3.org/Graphics/SVG/1.1/DTD/svg11.dtd">
<svg version="1.1" id="Layer_1" xmlns="http://www.w3.org/2000/svg" xmlns:xlink="http://www.w3.org/1999/xlink" x="0px" y="0px"
	 width="1190.549px" height="841.891px" viewBox="0 0 1190.549 841.891" enable-background="new 0 0 1190.549 841.891"
	 xml:space="preserve">
<g>
	<g>
		<g>
			<path d="M809.22,674.092c1.019,6.911-9.091,13.736-22.464,15.214l-358.113,39.393c-13.364,1.499-25.273,0.863-26.475-1.392
				c-1.185-2.275,8.732-5.781,22.035-7.794l359-54.294C796.507,663.2,808.215,667.195,809.22,674.092z"/>
		</g>
	</g>
</g>
<g>
	<path d="M389.552,718.499c-2.674,0-5.312-0.863-7.471-2.532c-2.588-1.978-4.283-4.903-4.711-8.143l-70.644-539.636
		c-0.863-6.619,3.708-12.718,10.296-13.736c1.089-0.172,109.492-16.996,206.64-35.267c81.495-15.32,165.88-35.115,166.742-35.312
		c3.239-0.747,6.669-0.187,9.454,1.639c2.82,1.806,4.762,4.667,5.407,7.936l105.583,533.558c1.261,6.396-2.699,12.666-9.02,14.271
		c-0.983,0.268-99.247,25.288-176.459,39.61c-116.02,21.524-232.993,37.354-234.158,37.521
		C390.642,718.463,390.093,718.499,389.552,718.499z M332.645,176.875l67.471,515.478c32.901-4.615,127.158-18.281,220.745-35.624
		c61.115-11.325,135.668-29.465,163.59-36.422l-100.84-509.642c-26.59,6.094-91.857,20.733-155.423,32.684
		C449.512,158.124,363.523,171.972,332.645,176.875z"/>
</g>
<g>
	<path d="M381.068,285.721c-3.152,0-5.887-2.346-6.306-5.569c-0.444-3.48,2.028-6.669,5.519-7.123
		c2.291-0.282,229.729-29.44,287.343-62.371c3.022-1.745,6.937-0.701,8.688,2.356c1.75,3.057,0.681,6.936-2.376,8.687
		c-59.799,34.192-282.596,62.754-292.05,63.96C381.597,285.711,381.335,285.721,381.068,285.721z"/>
</g>
<g>
	<path d="M389.729,345.358c-1.549,0-3.118-0.54-4.283-1.574c-1.377-1.216-2.265-2.936-2.265-4.767c0-3.203,2.579-5.933,5.771-6.331
		c12.692-1.64,126.547-16.582,211.004-36.987c3.43-0.822,6.86,1.276,7.688,4.692c0.827,3.42-1.281,6.855-4.691,7.677
		c-85.142,20.567-199.608,35.584-212.386,37.234C390.284,345.343,390.017,345.358,389.729,345.358z"/>
</g>
</svg>
