<?xml version="1.0" encoding="utf-8"?>
<!-- Generator: Adobe Illustrator 16.0.0, SVG Export Plug-In . SVG Version: 6.00 Build 0)  -->
<!DOCTYPE svg PUBLIC "-//W3C//DTD SVG 1.1//EN" "http://www.w3.org/Graphics/SVG/1.1/DTD/svg11.dtd">
<svg version="1.1" id="Layer_1" xmlns="http://www.w3.org/2000/svg" xmlns:xlink="http://www.w3.org/1999/xlink" x="0px" y="0px"
	 width="1190.549px" height="841.891px" viewBox="0 0 1190.549 841.891" enable-background="new 0 0 1190.549 841.891"
	 xml:space="preserve">
<g>
	<circle cx="652.126" cy="274.106" r="25.062"/>
	<path d="M873.9,54.049c-22.516-22.516-59.134-22.509-81.643,0L535.972,310.334l-0.074-0.074l-37.615,37.616
		c-4.048-19.027-13.376-37.151-28.126-51.908c-40.667-40.673-106.832-40.673-147.513,0c-40.653,40.667-40.66,106.833,0.007,147.499
		c39.319,39.32,102.407,40.499,143.303,3.792l0.202,0.202l103.479-103.479l-26.913-26.906L799.012,60.798
		c18.784-18.784,49.349-18.784,68.14,0c18.777,18.777,18.771,49.348-0.014,68.126L611.015,385.061l-26.914-26.914L480.622,461.625
		l0.202,0.202c-36.706,40.896-35.527,103.977,3.799,143.304c40.66,40.666,106.832,40.666,147.492,0
		c40.674-40.674,40.66-106.84,0.007-147.5c-14.757-14.756-32.888-24.084-51.914-28.132l37.615-37.616l-0.067-0.061l256.137-256.137
		C896.402,113.177,896.402,76.551,873.9,54.049z M356.959,409.172c-21.761-21.754-21.748-57.141-0.007-78.889
		c21.755-21.761,57.141-21.768,78.902-0.006c21.747,21.754,21.747,57.141-0.014,78.895
		C414.093,430.92,378.707,430.927,356.959,409.172z M597.814,570.821c-21.748,21.755-57.134,21.748-78.889,0
		c-21.747-21.754-21.761-57.134,0-78.895c21.748-21.755,57.134-21.748,78.896,0C619.569,513.688,619.574,549.067,597.814,570.821z"
		/>
</g>
</svg>
