<?xml version="1.0" encoding="utf-8"?>
<!-- Generator: Adobe Illustrator 16.0.0, SVG Export Plug-In . SVG Version: 6.00 Build 0)  -->
<!DOCTYPE svg PUBLIC "-//W3C//DTD SVG 1.1//EN" "http://www.w3.org/Graphics/SVG/1.1/DTD/svg11.dtd">
<svg version="1.1" id="Layer_1" xmlns="http://www.w3.org/2000/svg" xmlns:xlink="http://www.w3.org/1999/xlink" x="0px" y="0px"
	 width="1190.549px" height="841.891px" viewBox="0 0 1190.549 841.891" enable-background="new 0 0 1190.549 841.891"
	 xml:space="preserve">
<path d="M825.448,234.167L639.653,28.011l-14.406-16.286l-18.556,11.483l-128.096,78.653l-3.657,2.27l-2.761,3.334L365.762,234.975
	l-6.217,7.348v9.578v259.922v13.133l10.567,7.935l90.352,68.456l2.513,1.886l2.869,1.252l119.44,52.434l11.072,4.862l10.918-5.192
	l209.92-100.495l13.808-7.173v-16.696V251.907v-10.184L825.448,234.167z M469.133,486.222l67.122,64.125l-55.78,27.654
	L469.133,486.222z M404.314,265.909l66.112,35.508l54.318,191.823l-57.438-113.655l0,0l0,0L404.314,265.909z M461.28,227.526
	l5.934,57.74l-65.21-34.524L461.28,227.526z M450.921,382.643l-64.435,115.608V263.72L450.921,382.643z M466.836,465.747
	l-1.374-55.073l57.329,108.53L466.836,465.747z M553.031,546.892l-68.94-242.403l175.06,18.306l46.283,106.563l-2.397,149.748l0,0
	l-19.403,11.12L553.031,546.892z M705.313,266.846l46.628,100.831l-79.118-52.863L705.313,266.846z M716.217,417.618l-37.145-82.728
	l77.4,51.719L716.217,417.618z M720.211,431.229l43.967-33.864l39.946,136.271L719.43,573.94L720.211,431.229z M770.388,383.956
	L770.388,383.956L770.388,383.956L716.91,266.758l87.153,39.327v190.758L770.388,383.956z M804.064,291.583l-92.743-42.472
	l-4.903-106.031L804.064,251.9V291.583z M620.45,45.745l75.851,83.609l0,0l4.089,122.189l-39.684,58.083l-179.45-18.75l-8.54-72.133
	l21.532-96.696l0,0L620.45,45.745z M482.394,136.521l-20.926,76.733l-63.943,25.048L482.394,136.521z M393.221,511.869
	L393.221,511.869l59.565-106.415l1.199,61.694l-19.565,79.144l-41.751-34.423H393.221z M445.762,556.988l12.446-51.544l8.298,67.27
	L445.762,556.988z M595.921,632.718l-103.97-45.645l56.197-27.863l119.744,39.267L595.921,632.718z"/>
</svg>
